<svg xmlns="http://www.w3.org/2000/svg" width="170" height="39" fill="none"><path fill="#000" d="m169.271 17.386-4.811.852a5.717 5.717 0 0 0-.959-1.758c-.426-.556-1.006-1.012-1.74-1.367s-1.652-.533-2.752-.533c-1.504 0-2.759.338-3.765 1.012-1.006.663-1.509 1.521-1.509 2.575 0 .911.337 1.645 1.012 2.202.675.556 1.764 1.012 3.267 1.367l4.333.994c2.509.58 4.379 1.474 5.61 2.681 1.231 1.208 1.847 2.776 1.847 4.705 0 1.634-.474 3.09-1.42 4.368-.936 1.267-2.244 2.261-3.924 2.983-1.67.722-3.605 1.083-5.807 1.083-3.054 0-5.545-.65-7.475-1.953-1.929-1.314-3.113-3.178-3.551-5.593l5.132-.781c.319 1.338.976 2.35 1.97 3.036.995.675 2.291 1.012 3.889 1.012 1.74 0 3.131-.36 4.172-1.083 1.042-.734 1.563-1.627 1.563-2.68 0-.853-.32-1.57-.959-2.15-.627-.58-1.592-1.017-2.894-1.313l-4.616-1.012c-2.545-.58-4.428-1.504-5.647-2.77-1.207-1.267-1.811-2.87-1.811-4.812 0-1.61.45-3.019 1.35-4.226.899-1.207 2.142-2.148 3.728-2.823 1.586-.687 3.403-1.03 5.451-1.03 2.948 0 5.268.64 6.96 1.918 1.693 1.266 2.812 2.965 3.356 5.096ZM136.383 38V10.727h5.309V38h-5.309Zm2.681-31.48c-.923 0-1.716-.309-2.379-.924-.651-.628-.976-1.373-.976-2.237 0-.876.325-1.622.976-2.238a3.34 3.34 0 0 1 2.379-.94c.924 0 1.711.313 2.362.94.663.616.994 1.362.994 2.238 0 .864-.331 1.61-.994 2.237-.651.615-1.438.923-2.362.923ZM117.194 38V10.727h5.131v4.333h.284c.498-1.468 1.373-2.622 2.628-3.463 1.267-.852 2.699-1.278 4.297-1.278.332 0 .722.012 1.172.035.462.024.823.054 1.083.09v5.077c-.213-.059-.592-.124-1.136-.195a10.844 10.844 0 0 0-1.634-.124c-1.255 0-2.373.266-3.356.799a5.938 5.938 0 0 0-2.308 2.184c-.568.923-.852 1.977-.852 3.16V38h-5.309ZM100.313 38.55c-2.64 0-4.913-.597-6.819-1.793-1.893-1.207-3.35-2.87-4.367-4.99-1.018-2.118-1.527-4.545-1.527-7.28 0-2.769.52-5.213 1.562-7.332 1.042-2.13 2.51-3.794 4.403-4.99 1.895-1.195 4.126-1.793 6.694-1.793 2.072 0 3.919.385 5.54 1.154 1.622.758 2.93 1.823 3.924 3.196 1.006 1.373 1.604 2.977 1.794 4.812h-5.167c-.284-1.278-.936-2.38-1.954-3.302-1.006-.924-2.355-1.385-4.048-1.385-1.48 0-2.776.39-3.888 1.171-1.101.77-1.96 1.87-2.575 3.303-.615 1.42-.923 3.101-.923 5.043 0 1.988.302 3.705.905 5.149.604 1.444 1.456 2.562 2.557 3.356 1.113.793 2.42 1.19 3.924 1.19 1.006 0 1.918-.184 2.735-.551a5.584 5.584 0 0 0 2.077-1.616c.568-.698.965-1.539 1.19-2.521h5.167c-.19 1.764-.764 3.338-1.723 4.723-.959 1.385-2.243 2.474-3.853 3.267-1.598.793-3.474 1.19-5.628 1.19ZM84.763 10.727 74.873 38h-5.682l-9.907-27.273h5.7l6.906 20.988h.284l6.89-20.988h5.7ZM44.622 38.55c-2.687 0-5.001-.574-6.943-1.722-1.929-1.16-3.42-2.788-4.474-4.883-1.042-2.107-1.562-4.575-1.562-7.404 0-2.793.52-5.256 1.562-7.386 1.054-2.13 2.521-3.794 4.404-4.99 1.893-1.195 4.107-1.793 6.64-1.793 1.539 0 3.03.255 4.474.764a10.837 10.837 0 0 1 3.889 2.397c1.148 1.089 2.054 2.503 2.717 4.243.663 1.729.994 3.83.994 6.303v1.883h-21.68v-3.978h16.478c0-1.396-.285-2.633-.853-3.71a6.444 6.444 0 0 0-2.397-2.575c-1.018-.627-2.213-.941-3.586-.941-1.492 0-2.794.367-3.907 1.1a7.387 7.387 0 0 0-2.556 2.842c-.592 1.16-.888 2.42-.888 3.782v3.107c0 1.823.32 3.373.959 4.652.65 1.278 1.556 2.255 2.716 2.93 1.16.662 2.516.994 4.066.994 1.006 0 1.924-.142 2.752-.426a5.943 5.943 0 0 0 2.149-1.314c.603-.58 1.065-1.296 1.385-2.149l5.025.906a9.098 9.098 0 0 1-2.167 3.888c-1.03 1.101-2.326 1.96-3.888 2.575-1.55.604-3.32.905-5.309.905ZM11.778 38.533c-2.201 0-4.166-.563-5.894-1.687-1.717-1.136-3.066-2.752-4.049-4.847C.865 29.892.38 27.364.38 24.417c0-2.948.492-5.469 1.474-7.564.994-2.095 2.356-3.7 4.084-4.812 1.728-1.113 3.687-1.669 5.877-1.669 1.693 0 3.054.284 4.084.852 1.041.557 1.846 1.208 2.415 1.954.58.745 1.03 1.402 1.349 1.97h.32V1.636h5.309V38h-5.185v-4.244h-.444c-.32.58-.781 1.243-1.385 1.989-.592.746-1.409 1.397-2.45 1.953-1.042.556-2.391.835-4.049.835Zm1.172-4.528c1.527 0 2.818-.403 3.871-1.207 1.065-.817 1.87-1.948 2.415-3.392.556-1.444.834-3.125.834-5.042 0-1.894-.272-3.552-.816-4.972-.545-1.42-1.344-2.527-2.398-3.32-1.053-.793-2.355-1.19-3.906-1.19-1.598 0-2.93.414-3.995 1.243-1.065.829-1.87 1.959-2.415 3.391-.532 1.433-.799 3.048-.799 4.848 0 1.823.273 3.462.817 4.918.545 1.456 1.35 2.61 2.415 3.462 1.077.84 2.403 1.261 3.977 1.261Z"/></svg>