<svg xmlns="http://www.w3.org/2000/svg" width="28" height="19" fill="none"><path fill="#fff" d="M0 0h28v18.705H0V0Z"/><path fill="#1B1B20" d="M0 17.266h28v1.44H0v-1.44ZM0 11.51h28v1.44H0v-1.44ZM0 14.389h28v1.438H0V14.39ZM0 8.633h28v1.439H0V8.633ZM0 2.878h28v1.439H0v-1.44ZM0 0h28v1.439H0V0ZM0 5.755h28v1.44H0v-1.44Z"/><path fill="#C50002" d="M0 0h10.765v7.194H0V0Z"/><path fill="#D9D9D9" d="M8.318 3.503c0 1.569-1.311 2.84-2.93 2.84-1.618 0-2.93-1.271-2.93-2.84 0-1.57 1.312-2.841 2.93-2.841 1.619 0 2.93 1.272 2.93 2.84Z"/><path fill="#244093" d="M4.572 1.265c-.005.008-.018.011-.03.007-.012-.006-.017.001-.015.021.002.021-.01.038-.044.056a.352.352 0 0 0-.063.04c-.007.008-.035.015-.06.015-.044 0-.089.029-.089.06 0 .011-.005.01-.017-.002a.075.075 0 0 0-.047-.016.132.132 0 0 1-.067-.03c-.02-.015-.042-.024-.05-.02-.025.016-.016.052.013.06.032.008.034.016.013.089-.021.066-.002.097.059.097.047 0 .054.023.01.03-.019.003-.041.021-.051.044-.013.026-.027.038-.042.03-.014-.005-.04.012-.074.047-.048.05-.055.053-.074.034-.02-.022-.024-.02-.041.004-.018.024-.022.024-.072-.016-.028-.022-.05-.047-.05-.056a.147.147 0 0 0-.02-.053c-.015-.032-.02-.034-.036-.015-.011.012-.03.018-.052.012-.024-.007-.032-.004-.03.01.004.015-.015.02-.072.02-.092.001-.112.01-.112.057 0 .028.007.034.042.034.034 0 .042.005.042.03 0 .023-.006.027-.034.02a.064.064 0 0 0-.078.06c0 .014.018.05.042.079.045.056.046.084.014.252a2.74 2.74 0 0 0-.025.133c-.01.054-.016.063-.045.061-.02 0-.04.007-.046.019-.01.015-.017.015-.031.004-.027-.021-.097.015-.164.085-.043.044-.053.066-.053.11 0 .029-.011.068-.025.086a.374.374 0 0 0-.042.086c-.021.059-.012.084.059.16.03.034.037.054.03.08-.008.031-.004.036.035.034.034-.001.052.009.072.035.033.046.042.046.09.003a.159.159 0 0 1 .048-.035c.006 0 .013.04.016.087.004.08.007.088.032.084a2.15 2.15 0 0 1 .13-.013c.083-.005.104-.012.116-.035.009-.015.023-.024.034-.02.01.003.032-.01.05-.029.05-.05.13-.088.184-.084.042.004.046.007.046.052 0 .027.006.057.011.067.007.01.007.03.003.045-.01.032.03.126.056.126.01 0 .025.01.035.021.011.013.04.021.079.021.032 0 .064.007.068.014.018.03.202.108.216.094.018-.018.13.053.124.078a.11.11 0 0 0 .016.05c.017.03.015.037-.007.054-.02.014-.021.022-.009.035.01.01.017.034.017.055 0 .051.024.065.12.071.072.004.083.008.088.034.002.015.029.058.058.095.031.038.056.073.056.08a.665.665 0 0 1-.035.1c-.026.066-.03.089-.018.104.013.016.013.023-.004.032-.017.012-.015.02.006.06.02.037.023.064.015.118l-.008.07.053.002c.094.001.162.015.189.039a.224.224 0 0 1 .04.09c.016.065.02.068.068.072.042.003.051.01.051.035 0 .017.006.035.01.04.006.006.004.022-.004.037-.022.044-.01.103.022.103.072 0 .06.165-.014.203a.534.534 0 0 0-.203.162 2.052 2.052 0 0 1-.093.11c-.054.052-.037.085.023.047.023-.014.031-.011.06.024a.661.661 0 0 1 .041.054c.007.011.018.01.04-.003.025-.015.027-.014.027.012 0 .016.021.04.054.061.028.018.08.06.113.091l.063.06-.025.041c-.021.035-.021.042-.003.05.05.019.106-.062.106-.154 0-.033.02-.07.065-.117.027-.03.034-.05.028-.077-.006-.03-.003-.04.013-.04.01 0 .02.01.02.023 0 .014.009.02.02.015.045-.016.03.013-.04.096a.667.667 0 0 0-.077.096c0 .046.162-.109.176-.17.02-.083.077-.159.141-.185.04-.017.06-.087.054-.2-.005-.06.001-.097.016-.121.016-.025.017-.035.005-.043-.013-.009-.013-.013 0-.021.008-.006.023-.003.032.005.022.023.038.018.038-.011 0-.056.193-.175.263-.161.034.007.046 0 .083-.04.035-.041.051-.05.099-.05.032 0 .062.004.066.011.008.014.052.003.064-.018.006-.007.025-.001.046.011.038.026.038.026.084-.026a.208.208 0 0 1 .062-.05c.008 0 .027-.024.04-.054.013-.028.062-.1.108-.157.066-.082.086-.119.094-.172a.293.293 0 0 1 .048-.115.181.181 0 0 0 .035-.09c0-.023.014-.072.03-.106.022-.047.027-.08.022-.123a.278.278 0 0 1 .007-.104.105.105 0 0 0 .003-.077c-.01-.025-.007-.046.015-.09.025-.047.034-.054.053-.041.02.012.034.004.08-.048.03-.035.056-.075.056-.09 0-.018.05-.078.123-.15.247-.244.284-.337.234-.58-.025-.122-.066-.164-.153-.159a.594.594 0 0 1-.072 0 1.102 1.102 0 0 1-.223-.18c-.021-.026-.043-.045-.05-.045a.69.69 0 0 1-.091-.037c-.057-.025-.092-.033-.117-.026a.313.313 0 0 1-.071.01.601.601 0 0 1-.207-.05c-.021-.016-.101-.025-.122-.012a.063.063 0 0 1-.034.01c-.011 0-.033.026-.049.059-.053.107-.063.065-.011-.052.025-.06.024-.081-.015-.123-.027-.028-.033-.03-.047-.012-.02.028-.033.028-.033.002 0-.013-.011-.025-.024-.03a2.9 2.9 0 0 1-.19-.074c-.06-.024-.087-.02-.136.023-.03.023-.042.044-.038.063.005.018 0 .025-.024.025-.017 0-.038.007-.045.014a.237.237 0 0 1-.087.024c-.04.004-.072.014-.072.022 0 .008-.012.004-.026-.008-.02-.019-.029-.02-.042-.007-.012.012-.016.012-.016-.005 0-.01.007-.028.016-.037.013-.013.013-.021 0-.034-.012-.013-.033-.01-.093.015-.042.017-.084.027-.093.021-.024-.014.025-.047.069-.047.036 0 .06-.021.109-.091.021-.031.027-.052.017-.058-.007-.005-.018-.002-.024.005a.446.446 0 0 1-.088.116c-.035 0 .02-.084.127-.195.094-.097.107-.141.044-.155-.038-.009-.08-.1-.097-.21-.014-.096-.025-.104-.07-.06a.715.715 0 0 0-.128.2c0 .026-.054.043-.085.028a.107.107 0 0 0-.067-.007.176.176 0 0 1-.08-.009.398.398 0 0 0-.116-.02l-.074-.004.008.042c.008.04.007.041-.034.033-.026-.006-.042-.005-.042.005 0 .009-.016.011-.039.007-.03-.005-.064.006-.131.04-.089.047-.094.048-.126.027-.05-.035-.068-.063-.06-.096.003-.017 0-.035-.008-.04-.024-.013-.015-.085.014-.118a.374.374 0 0 0 .028-.035.358.358 0 0 0-.061-.12.07.07 0 0 1-.023-.05c0-.035-.02-.045-.035-.018Z"/><path fill="#2C2E97" d="M5.79 1.838c-.019.022-.02.03-.006.049.01.011.024.017.033.011a.074.074 0 0 1 .035-.011c.033 0 .034-.032.002-.042-.016-.004-.025-.016-.021-.023.015-.023-.017-.012-.042.016ZM5.796 1.923a.158.158 0 0 0-.034.06c-.014.04-.014.055.003.079.034.047.074.056.125.025.023-.014.054-.022.067-.017.015.006.022.002.022-.018 0-.015.016-.04.035-.057.058-.05.04-.099-.03-.08-.027.005-.034.015-.029.035.005.015.002.03-.004.035-.007.004-.014-.01-.017-.031-.004-.035-.01-.04-.063-.04a.19.19 0 0 0-.075.01Z"/><path fill="#FFED00" d="m9.457.179.24.743h.774l-.627.46.24.744-.627-.46-.626.46.239-.744-.627-.46h.775l.24-.743ZM1.13 4.947l.238.744h.775l-.627.46.24.743-.627-.46-.627.46.24-.744-.627-.46H.89l.24-.743ZM1.319.179l.239.743h.774l-.626.46.24.744-.627-.46-.627.46.24-.744-.627-.46h.774L1.32.18ZM9.457 4.947l.24.744h.774l-.627.46.24.743-.627-.46-.626.46.239-.744-.627-.46h.775l.24-.743Z"/><path fill="#000" d="M19.972 12.164a.028.028 0 0 1-.017-.005.034.034 0 0 1-.01-.016.077.077 0 0 1-.005-.026c0-.01.002-.018.004-.025a.035.035 0 0 1 .011-.016.027.027 0 0 1 .017-.006c.007 0 .013.002.017.006.005.003.009.009.011.016a.076.076 0 0 1 .004.025c0 .01-.001.019-.004.026a.034.034 0 0 1-.01.016.028.028 0 0 1-.018.005Zm0-.01c.007 0 .012-.003.016-.01a.056.056 0 0 0 .005-.027.07.07 0 0 0-.002-.02.028.028 0 0 0-.007-.013.016.016 0 0 0-.012-.004c-.006 0-.012.003-.015.01a.055.055 0 0 0-.006.027c0 .008.001.015.003.02.001.006.004.01.007.013a.016.016 0 0 0 .011.005ZM19.893 12.164a.028.028 0 0 1-.017-.005.034.034 0 0 1-.01-.016.077.077 0 0 1-.005-.026c0-.01.002-.018.004-.025a.035.035 0 0 1 .011-.016.027.027 0 0 1 .017-.006c.007 0 .013.002.017.006.005.003.009.009.011.016a.076.076 0 0 1 .004.025c0 .01-.001.019-.004.026a.034.034 0 0 1-.01.016.028.028 0 0 1-.018.005Zm0-.01c.007 0 .012-.003.016-.01a.056.056 0 0 0 .005-.027.07.07 0 0 0-.002-.02.028.028 0 0 0-.008-.013.016.016 0 0 0-.01-.004c-.007 0-.013.003-.016.01a.055.055 0 0 0-.006.027c0 .008 0 .015.003.02.001.006.004.01.007.013a.016.016 0 0 0 .011.005ZM19.815 12.164a.028.028 0 0 1-.017-.005.035.035 0 0 1-.011-.016.077.077 0 0 1-.004-.026c0-.01.002-.018.004-.025a.034.034 0 0 1 .01-.016.027.027 0 0 1 .018-.006c.007 0 .012.002.017.006.005.003.009.009.011.016a.073.073 0 0 1 .004.025c0 .01-.001.019-.004.026a.035.035 0 0 1-.01.016.028.028 0 0 1-.018.005Zm0-.01c.007 0 .012-.003.016-.01a.056.056 0 0 0 .005-.027.07.07 0 0 0-.002-.02.027.027 0 0 0-.008-.013.016.016 0 0 0-.01-.004c-.008 0-.013.003-.017.01a.056.056 0 0 0-.005.027c0 .008 0 .015.003.02.001.006.003.01.007.013a.016.016 0 0 0 .011.005ZM19.736 12.164a.028.028 0 0 1-.017-.005.035.035 0 0 1-.011-.016.077.077 0 0 1-.004-.026c0-.01.001-.018.004-.025a.034.034 0 0 1 .01-.016.027.027 0 0 1 .018-.006c.007 0 .012.002.017.006.005.003.009.009.011.016a.073.073 0 0 1 .004.025c0 .01-.001.019-.004.026a.035.035 0 0 1-.01.016.028.028 0 0 1-.018.005Zm0-.01c.007 0 .012-.003.015-.01a.056.056 0 0 0 .006-.027.07.07 0 0 0-.003-.02.027.027 0 0 0-.007-.013.016.016 0 0 0-.011-.004c-.007 0-.012.003-.016.01a.056.056 0 0 0-.005.027c0 .008 0 .015.002.02.002.006.004.01.008.013a.016.016 0 0 0 .011.005ZM19.657 12.164a.028.028 0 0 1-.017-.005.035.035 0 0 1-.011-.016.077.077 0 0 1-.004-.026c0-.01.001-.018.004-.025a.034.034 0 0 1 .01-.016.027.027 0 0 1 .018-.006c.006 0 .012.002.017.006.005.003.008.009.01.016a.073.073 0 0 1 .005.025c0 .01-.002.019-.004.026a.035.035 0 0 1-.01.016.028.028 0 0 1-.018.005Zm0-.01c.006 0 .012-.003.015-.01a.056.056 0 0 0 .006-.027.07.07 0 0 0-.003-.02.027.027 0 0 0-.007-.013.016.016 0 0 0-.011-.004c-.007 0-.012.003-.016.01a.056.056 0 0 0-.005.027c0 .008 0 .015.002.02.002.006.004.01.007.013a.016.016 0 0 0 .012.005ZM19.579 12.164a.028.028 0 0 1-.018-.005.035.035 0 0 1-.01-.016.077.077 0 0 1-.004-.026c0-.01.001-.018.004-.025a.035.035 0 0 1 .01-.016.027.027 0 0 1 .018-.006c.006 0 .012.002.017.006.005.003.008.009.01.016a.076.076 0 0 1 .005.025c0 .01-.002.019-.004.026a.035.035 0 0 1-.011.016.028.028 0 0 1-.017.005Zm0-.01c.006 0 .012-.003.015-.01a.056.056 0 0 0 .006-.027.07.07 0 0 0-.003-.02.03.03 0 0 0-.007-.013.016.016 0 0 0-.011-.004c-.007 0-.012.003-.016.01a.056.056 0 0 0-.005.027c0 .008 0 .015.002.02.002.006.004.01.007.013a.016.016 0 0 0 .012.005Z"/></svg>