<svg width="28" height="19" viewBox="0 0 28 19" fill="none" xmlns="http://www.w3.org/2000/svg">
<path d="M0 17.2664H28V18.7052H0V17.2664Z" fill="#1B1B20"/>
<path d="M0 11.5109H28V12.9497H0V11.5109Z" fill="#1B1B20"/>
<path d="M0 14.3885H28V15.8274H0V14.3885Z" fill="#1B1B20"/>
<path d="M0 8.63318H28V10.072H0V8.63318Z" fill="#1B1B20"/>
<path d="M0 2.87769H28V4.31655H0V2.87769Z" fill="#1B1B20"/>
<path d="M0 0H28V1.43886H0V0Z" fill="#1B1B20"/>
<path d="M0 5.75549H28V7.19435H0V5.75549Z" fill="#1B1B20"/>
<path d="M0 0H10.7652V7.1943H0V0Z" fill="#C50002"/>
<path d="M8.31847 3.50258C8.31847 5.0716 7.00656 6.34354 5.38824 6.34354C3.76992 6.34354 2.45801 5.0716 2.45801 3.50258C2.45801 1.93356 3.76992 0.661621 5.38824 0.661621C7.00656 0.661621 8.31847 1.93356 8.31847 3.50258Z" fill="#D9D9D9"/>
<path d="M4.57227 1.26496C4.56667 1.27336 4.55407 1.27616 4.54286 1.27196C4.53026 1.26636 4.52466 1.27336 4.52746 1.29297C4.52886 1.31397 4.51626 1.33078 4.48265 1.34898C4.45604 1.36298 4.42803 1.38119 4.41963 1.38959C4.41263 1.39659 4.38462 1.40359 4.36082 1.40359C4.31601 1.40359 4.2712 1.433 4.2712 1.46381C4.2712 1.47501 4.26559 1.47361 4.25439 1.46241C4.24459 1.45261 4.22358 1.4456 4.20678 1.4456C4.18998 1.4456 4.16057 1.433 4.13956 1.4162C4.11996 1.40079 4.09755 1.39239 4.08915 1.39659C4.06534 1.412 4.07375 1.44841 4.10315 1.45541C4.13536 1.46381 4.13676 1.47221 4.11576 1.54503C4.09475 1.61085 4.11436 1.64165 4.17457 1.64165C4.22218 1.64165 4.22918 1.66546 4.18437 1.67246C4.16617 1.67526 4.14376 1.69347 4.13396 1.71587C4.12136 1.74248 4.10735 1.75368 4.09195 1.74668C4.07795 1.74108 4.05274 1.75788 4.01773 1.79289C3.97012 1.8433 3.96312 1.8461 3.94351 1.8265C3.92391 1.80549 3.91971 1.8069 3.9029 1.8307C3.8847 1.85451 3.8805 1.85451 3.83149 1.8153C3.80348 1.79289 3.78107 1.76769 3.78107 1.75928C3.78107 1.74948 3.77267 1.72567 3.76147 1.70607C3.74606 1.67386 3.74046 1.67246 3.72506 1.69067C3.71386 1.70327 3.69565 1.70887 3.67325 1.70327C3.64944 1.69627 3.64104 1.69907 3.64384 1.71307C3.64664 1.72848 3.62843 1.73268 3.57102 1.73268C3.4786 1.73408 3.45899 1.74388 3.45899 1.79009C3.45899 1.8181 3.46599 1.8237 3.501 1.8237C3.53461 1.8237 3.54301 1.8293 3.54301 1.85311C3.54301 1.87691 3.53741 1.88111 3.5094 1.87411C3.4702 1.86431 3.43099 1.89512 3.43099 1.93433C3.43099 1.94833 3.44919 1.98334 3.473 2.01275C3.51781 2.06876 3.51921 2.09677 3.487 2.26481C3.4786 2.30262 3.46739 2.36283 3.46179 2.39784C3.45199 2.45246 3.44639 2.46086 3.41698 2.45946C3.39738 2.45806 3.37637 2.46646 3.37077 2.47766C3.36097 2.49307 3.35397 2.49307 3.33996 2.48186C3.31336 2.46086 3.24334 2.49727 3.17612 2.56729C3.13271 2.6107 3.12291 2.6331 3.12291 2.67651C3.12291 2.70592 3.11171 2.74513 3.0977 2.76333C3.0837 2.78154 3.06549 2.82075 3.05569 2.84876C3.03469 2.90757 3.04449 2.93278 3.11451 3.0098C3.14531 3.0434 3.15232 3.06301 3.14531 3.08962C3.13691 3.12042 3.14111 3.12462 3.18032 3.12322C3.21393 3.12182 3.23214 3.13163 3.25174 3.15823C3.28535 3.20444 3.29375 3.20444 3.34136 3.16103C3.36237 3.14143 3.38477 3.12602 3.39038 3.12602C3.39598 3.12602 3.40298 3.16523 3.40578 3.21285C3.40998 3.29267 3.41278 3.30107 3.43799 3.29687C3.45339 3.29407 3.51221 3.28847 3.56822 3.28426C3.65084 3.27866 3.67185 3.27166 3.68445 3.24926C3.69285 3.23385 3.70685 3.22545 3.71806 3.22965C3.72786 3.23245 3.75027 3.21985 3.76847 3.20024C3.81748 3.14983 3.8987 3.11202 3.95192 3.11622C3.99393 3.12042 3.99813 3.12322 3.99813 3.16804C3.99813 3.19464 4.00373 3.22545 4.00933 3.23525C4.01633 3.24505 4.01633 3.26466 4.01213 3.28006C4.00233 3.31227 4.04294 3.40609 4.06814 3.40609C4.07795 3.40609 4.09335 3.4159 4.10315 3.4271C4.11436 3.4397 4.14376 3.44811 4.18157 3.44811C4.21378 3.44811 4.24599 3.45511 4.25019 3.46211C4.26839 3.49152 4.45184 3.56994 4.46584 3.55593C4.48405 3.53773 4.59608 3.60915 4.59048 3.63435C4.58907 3.64415 4.59608 3.66656 4.60588 3.68476C4.62268 3.71417 4.62128 3.72117 4.59888 3.73798C4.57927 3.75198 4.57787 3.76038 4.59048 3.77299C4.60028 3.78279 4.60728 3.80659 4.60728 3.8276C4.60728 3.87941 4.63109 3.89342 4.72631 3.89902C4.79913 3.90322 4.81033 3.90742 4.81453 3.93263C4.81733 3.94803 4.84394 3.99144 4.87335 4.02785C4.90415 4.06566 4.92936 4.10067 4.92936 4.10767C4.92936 4.11467 4.91396 4.15948 4.89435 4.20709C4.86774 4.27431 4.86354 4.29672 4.87615 4.31212C4.88875 4.32753 4.88875 4.33453 4.87195 4.34433C4.85514 4.35553 4.85654 4.36393 4.87755 4.40454C4.89715 4.44095 4.90135 4.46756 4.89295 4.52217L4.88455 4.59219L4.93776 4.59359C5.03159 4.59499 5.1002 4.609 5.12681 4.6328C5.13941 4.644 5.15902 4.68601 5.16742 4.72242C5.18282 4.78824 5.18702 4.79104 5.23464 4.79524C5.27665 4.79804 5.28645 4.80504 5.28645 4.83025C5.28645 4.84706 5.29205 4.86526 5.29625 4.87086C5.30185 4.87646 5.30045 4.89187 5.29205 4.90727C5.26964 4.95068 5.28225 5.0095 5.31446 5.0095C5.38587 5.0095 5.37467 5.17474 5.30045 5.21255C5.20663 5.26016 5.15762 5.29937 5.0974 5.37499C5.06239 5.4184 5.02038 5.46881 5.00358 5.48561C4.95036 5.53743 4.96717 5.56964 5.02738 5.53183C5.04979 5.51782 5.05819 5.52062 5.0862 5.55563C5.1044 5.57664 5.12261 5.60184 5.12821 5.61025C5.13521 5.62145 5.14641 5.62005 5.16742 5.60745C5.19263 5.59204 5.19543 5.59344 5.19543 5.61865C5.19543 5.63545 5.21643 5.65926 5.24864 5.68026C5.27665 5.69847 5.32846 5.73908 5.36207 5.77129L5.42508 5.8301L5.39988 5.87211C5.37887 5.90712 5.37887 5.91412 5.39708 5.92112C5.44749 5.94073 5.5035 5.85951 5.5035 5.76849C5.5035 5.73488 5.52311 5.69847 5.56792 5.65086C5.59453 5.62145 5.60153 5.60184 5.59593 5.57384C5.59033 5.54443 5.59313 5.53463 5.60853 5.53463C5.61973 5.53463 5.62953 5.54443 5.62953 5.55703C5.62953 5.57104 5.63794 5.57664 5.64914 5.57244C5.69395 5.55563 5.67995 5.58504 5.60853 5.66766C5.56652 5.71527 5.53151 5.75868 5.53151 5.76428C5.53151 5.8105 5.69395 5.65506 5.70795 5.59344C5.72756 5.51082 5.78497 5.4352 5.84939 5.4086C5.8886 5.39179 5.9082 5.32177 5.9026 5.20975C5.8984 5.14813 5.904 5.11172 5.91941 5.08792C5.93481 5.06271 5.93621 5.05291 5.92361 5.0445C5.91101 5.0361 5.91101 5.0319 5.92361 5.0235C5.93201 5.0179 5.94741 5.0207 5.95582 5.0291C5.97822 5.05151 5.99363 5.04731 5.99363 5.0179C5.99363 4.96188 6.18687 4.84285 6.25689 4.85686C6.2905 4.86386 6.3031 4.85686 6.33951 4.81625C6.37452 4.77564 6.39133 4.76724 6.43894 4.76724C6.47115 4.76724 6.50055 4.77144 6.50475 4.77844C6.51316 4.79244 6.55657 4.78124 6.56917 4.76023C6.57477 4.75323 6.59438 4.75883 6.61538 4.77144C6.65319 4.79664 6.65319 4.79664 6.6994 4.74483C6.72601 4.71682 6.75402 4.69442 6.76102 4.69442C6.76942 4.69442 6.78762 4.67061 6.80023 4.6412C6.81423 4.6132 6.86324 4.54178 6.90945 4.48436C6.97527 4.40174 6.99488 4.36533 7.00328 4.31212C7.01028 4.27431 7.02988 4.2225 7.05089 4.19729C7.07049 4.17069 7.0859 4.13148 7.0859 4.10767C7.0859 4.08386 7.0999 4.03485 7.11531 4.00124C7.13771 3.95363 7.14331 3.92142 7.13771 3.87801C7.13351 3.8458 7.13631 3.79959 7.14471 3.77439C7.15592 3.74498 7.15592 3.71837 7.14751 3.69737C7.13771 3.67216 7.14051 3.65116 7.16292 3.60775C7.18812 3.56013 7.19653 3.55313 7.21613 3.56573C7.23574 3.57834 7.24974 3.56994 7.29595 3.51812C7.32676 3.48311 7.35197 3.4425 7.35197 3.4271C7.35197 3.4103 7.40238 3.35008 7.4752 3.27866C7.72166 3.0336 7.75947 2.94118 7.70905 2.69892C7.68385 2.57569 7.64324 2.53368 7.55642 2.53928C7.52421 2.54068 7.492 2.54068 7.4836 2.53928C7.45979 2.53648 7.30435 2.40905 7.26094 2.35863C7.23994 2.33343 7.21753 2.31382 7.21053 2.31382C7.20493 2.31382 7.16292 2.29702 7.11951 2.27741C7.06349 2.25221 7.02848 2.2438 7.00328 2.25081C6.98367 2.25641 6.95147 2.26061 6.93186 2.26061C6.87865 2.26061 6.74561 2.2298 6.72461 2.2116C6.7036 2.19479 6.62378 2.18639 6.60278 2.19899C6.59578 2.20459 6.58037 2.2088 6.56917 2.2088C6.55797 2.2088 6.53556 2.2354 6.52016 2.26761C6.46694 2.37544 6.45714 2.33343 6.50895 2.2158C6.53416 2.15558 6.53276 2.13458 6.49355 2.09257C6.46694 2.06456 6.46134 2.06316 6.44734 2.08136C6.42773 2.10937 6.41373 2.10937 6.41373 2.08276C6.41373 2.07016 6.40253 2.05756 6.38992 2.05336C6.37592 2.04916 6.35072 2.03935 6.33391 2.03235C6.31571 2.02535 6.2877 2.01415 6.2709 2.00714C6.25269 2.00014 6.22048 1.98754 6.19948 1.97914C6.14066 1.95533 6.11266 1.95953 6.06364 2.00154C6.03424 2.02535 6.02163 2.04635 6.02583 2.06456C6.03144 2.08276 6.02583 2.08977 6.00203 2.08977C5.98522 2.08977 5.96422 2.09677 5.95722 2.10377C5.94881 2.11217 5.9096 2.12197 5.87039 2.12758C5.82978 2.13178 5.79758 2.14158 5.79758 2.14998C5.79758 2.15838 5.78637 2.15418 5.77237 2.14158C5.75277 2.12337 5.74296 2.12197 5.73036 2.13458C5.71776 2.14718 5.71356 2.14718 5.71356 2.13038C5.71356 2.11917 5.72056 2.10237 5.73036 2.09257C5.74296 2.07996 5.74296 2.07156 5.73036 2.05896C5.71776 2.04635 5.69675 2.04916 5.63654 2.07436C5.59453 2.09117 5.55252 2.10097 5.54411 2.09537C5.52031 2.08136 5.56932 2.04776 5.61273 2.04776C5.64914 2.04776 5.67295 2.02675 5.72196 1.95673C5.74296 1.92592 5.74856 1.90492 5.73876 1.89932C5.73176 1.89372 5.72056 1.89652 5.71496 1.90352C5.67155 1.97214 5.63514 2.01975 5.62673 2.01975C5.59173 2.01975 5.64774 1.93573 5.75417 1.8251C5.84799 1.72848 5.86059 1.68366 5.79758 1.66966C5.75977 1.66126 5.71776 1.57024 5.70095 1.45961C5.68695 1.36438 5.67575 1.35598 5.63094 1.40079C5.59033 1.44 5.5035 1.57584 5.5035 1.59964C5.5035 1.62625 5.44889 1.64305 5.41808 1.62765C5.40268 1.61925 5.37187 1.61505 5.35087 1.62065C5.32986 1.62485 5.29345 1.62065 5.27105 1.61225C5.24864 1.60244 5.19683 1.59404 5.15482 1.59264L5.0806 1.58844L5.089 1.63045C5.0974 1.66966 5.096 1.67106 5.05539 1.66266C5.02878 1.65706 5.01338 1.65846 5.01338 1.66826C5.01338 1.67666 4.99658 1.67946 4.97417 1.67526C4.94476 1.66966 4.90975 1.68086 4.84254 1.71587C4.75432 1.76208 4.74871 1.76348 4.71651 1.74248C4.66609 1.70747 4.64929 1.67946 4.65629 1.64585C4.66049 1.62905 4.65769 1.61085 4.64929 1.60664C4.62548 1.59264 4.63389 1.52122 4.66329 1.48761C4.6787 1.46941 4.6913 1.45401 4.6913 1.45261C4.6913 1.4344 4.64649 1.34758 4.62968 1.33358C4.61708 1.32377 4.60728 1.30137 4.60728 1.28316C4.60728 1.24815 4.58767 1.23835 4.57227 1.26496Z" fill="#244093"/>
<path d="M5.79072 1.83773C5.77111 1.86014 5.76971 1.86854 5.78371 1.88675C5.79352 1.89795 5.80752 1.90355 5.81732 1.89795C5.82572 1.89235 5.84113 1.88675 5.85233 1.88675C5.88454 1.88675 5.88594 1.85454 5.85373 1.84474C5.83833 1.84053 5.82853 1.82933 5.83273 1.82233C5.84813 1.79852 5.81592 1.80973 5.79072 1.83773Z" fill="#2C2E97"/>
<path d="M5.79574 1.92311C5.78734 1.92871 5.77193 1.95532 5.76213 1.98332C5.74813 2.02393 5.74813 2.03794 5.76493 2.06174C5.79854 2.10935 5.83915 2.11776 5.88956 2.08695C5.91337 2.07294 5.94418 2.06454 5.95678 2.07014C5.97218 2.07575 5.97918 2.07154 5.97918 2.05194C5.97918 2.03654 5.99459 2.01133 6.01419 1.99452C6.07161 1.94411 6.0548 1.8965 5.98338 1.9147C5.95678 1.92031 5.94978 1.93011 5.95538 1.94971C5.95958 1.96512 5.95678 1.98052 5.95118 1.98472C5.94418 1.98892 5.93717 1.97492 5.93437 1.95391C5.93017 1.91891 5.92457 1.9147 5.87136 1.9133C5.83915 1.9133 5.80554 1.91611 5.79574 1.92311Z" fill="#2C2E97"/>
<path d="M9.4572 0.178589L9.69654 0.922445H10.471L9.84445 1.38217L10.0838 2.12603L9.4572 1.6663L8.83061 2.12603L9.06995 1.38217L8.44336 0.922445H9.21787L9.4572 0.178589Z" fill="#FFED00"/>
<path d="M1.12908 4.94678L1.36841 5.69063H2.14292L1.51633 6.15036L1.75567 6.89422L1.12908 6.43449L0.502488 6.89422L0.741823 6.15036L0.115234 5.69063H0.889741L1.12908 4.94678Z" fill="#FFED00"/>
<path d="M1.31853 0.178589L1.55787 0.922445H2.33237L1.70578 1.38217L1.94512 2.12603L1.31853 1.6663L0.691941 2.12603L0.931276 1.38217L0.304688 0.922445H1.07919L1.31853 0.178589Z" fill="#FFED00"/>
<path d="M9.4572 4.94678L9.69654 5.69063H10.471L9.84445 6.15036L10.0838 6.89422L9.4572 6.43449L8.83061 6.89422L9.06995 6.15036L8.44336 5.69063H9.21787L9.4572 4.94678Z" fill="#FFED00"/>
<path d="M19.9723 12.1644C19.9656 12.1644 19.9598 12.1625 19.9551 12.1589C19.9503 12.1552 19.9467 12.1498 19.9442 12.1428C19.9417 12.1357 19.9404 12.1272 19.9404 12.1173C19.9404 12.1074 19.9417 12.0989 19.9442 12.0919C19.9467 12.0849 19.9504 12.0795 19.9551 12.0758C19.9599 12.0721 19.9656 12.0702 19.9723 12.0702C19.979 12.0702 19.9847 12.0721 19.9894 12.0758C19.9942 12.0795 19.9979 12.0849 20.0004 12.0919C20.0029 12.0989 20.0042 12.1074 20.0042 12.1173C20.0042 12.1272 20.0029 12.1357 20.0004 12.1428C19.9979 12.1498 19.9943 12.1552 19.9895 12.1589C19.9848 12.1625 19.979 12.1644 19.9723 12.1644ZM19.9723 12.1545C19.979 12.1545 19.9842 12.1513 19.9879 12.1448C19.9916 12.1384 19.9934 12.1292 19.9934 12.1173C19.9934 12.1093 19.9926 12.1026 19.9909 12.097C19.9892 12.0914 19.9868 12.0872 19.9836 12.0842C19.9805 12.0813 19.9767 12.0799 19.9723 12.0799C19.9657 12.0799 19.9605 12.0831 19.9568 12.0897C19.953 12.0962 19.9512 12.1054 19.9512 12.1173C19.9512 12.1252 19.952 12.132 19.9537 12.1375C19.9553 12.1431 19.9578 12.1473 19.9609 12.1502C19.964 12.1531 19.9678 12.1545 19.9723 12.1545Z" fill="black"/>
<path d="M19.8932 12.1644C19.8865 12.1644 19.8807 12.1625 19.876 12.1589C19.8712 12.1552 19.8676 12.1498 19.8651 12.1428C19.8626 12.1357 19.8613 12.1272 19.8613 12.1173C19.8613 12.1074 19.8626 12.0989 19.8651 12.0919C19.8676 12.0849 19.8713 12.0795 19.876 12.0758C19.8808 12.0721 19.8865 12.0702 19.8932 12.0702C19.8999 12.0702 19.9056 12.0721 19.9103 12.0758C19.9151 12.0795 19.9187 12.0849 19.9213 12.0919C19.9238 12.0989 19.9251 12.1074 19.9251 12.1173C19.9251 12.1272 19.9238 12.1357 19.9213 12.1428C19.9188 12.1498 19.9152 12.1552 19.9104 12.1589C19.9057 12.1625 19.8999 12.1644 19.8932 12.1644ZM19.8932 12.1545C19.8999 12.1545 19.9051 12.1513 19.9088 12.1448C19.9125 12.1384 19.9143 12.1292 19.9143 12.1173C19.9143 12.1093 19.9135 12.1026 19.9118 12.097C19.9101 12.0914 19.9077 12.0872 19.9045 12.0842C19.9014 12.0813 19.8976 12.0799 19.8932 12.0799C19.8866 12.0799 19.8814 12.0831 19.8777 12.0897C19.8739 12.0962 19.8721 12.1054 19.8721 12.1173C19.8721 12.1252 19.8729 12.132 19.8746 12.1375C19.8762 12.1431 19.8786 12.1473 19.8818 12.1502C19.8849 12.1531 19.8887 12.1545 19.8932 12.1545Z" fill="black"/>
<path d="M19.8151 12.1644C19.8083 12.1644 19.8026 12.1625 19.7978 12.1589C19.7931 12.1552 19.7895 12.1498 19.787 12.1428C19.7845 12.1357 19.7832 12.1272 19.7832 12.1173C19.7832 12.1074 19.7845 12.0989 19.787 12.0919C19.7895 12.0849 19.7931 12.0795 19.7979 12.0758C19.8027 12.0721 19.8084 12.0702 19.8151 12.0702C19.8218 12.0702 19.8275 12.0721 19.8322 12.0758C19.837 12.0795 19.8406 12.0849 19.8431 12.0919C19.8457 12.0989 19.8469 12.1074 19.8469 12.1173C19.8469 12.1272 19.8457 12.1357 19.8432 12.1428C19.8407 12.1498 19.837 12.1552 19.8323 12.1589C19.8276 12.1625 19.8218 12.1644 19.8151 12.1644ZM19.8151 12.1545C19.8218 12.1545 19.8269 12.1513 19.8306 12.1448C19.8343 12.1384 19.8362 12.1292 19.8362 12.1173C19.8362 12.1093 19.8353 12.1026 19.8336 12.097C19.832 12.0914 19.8296 12.0872 19.8264 12.0842C19.8233 12.0813 19.8195 12.0799 19.8151 12.0799C19.8084 12.0799 19.8033 12.0831 19.7995 12.0897C19.7958 12.0962 19.7939 12.1054 19.7939 12.1173C19.7939 12.1252 19.7948 12.132 19.7965 12.1375C19.7981 12.1431 19.8005 12.1473 19.8037 12.1502C19.8068 12.1531 19.8106 12.1545 19.8151 12.1545Z" fill="black"/>
<path d="M19.736 12.1644C19.7292 12.1644 19.7235 12.1625 19.7187 12.1589C19.714 12.1552 19.7104 12.1498 19.7079 12.1428C19.7054 12.1357 19.7041 12.1272 19.7041 12.1173C19.7041 12.1074 19.7054 12.0989 19.7079 12.0919C19.7104 12.0849 19.714 12.0795 19.7188 12.0758C19.7236 12.0721 19.7293 12.0702 19.736 12.0702C19.7427 12.0702 19.7484 12.0721 19.7531 12.0758C19.7579 12.0795 19.7615 12.0849 19.764 12.0919C19.7666 12.0989 19.7678 12.1074 19.7678 12.1173C19.7678 12.1272 19.7666 12.1357 19.7641 12.1428C19.7616 12.1498 19.7579 12.1552 19.7532 12.1589C19.7485 12.1625 19.7427 12.1644 19.736 12.1644ZM19.736 12.1545C19.7427 12.1545 19.7478 12.1513 19.7515 12.1448C19.7552 12.1384 19.7571 12.1292 19.7571 12.1173C19.7571 12.1093 19.7562 12.1026 19.7545 12.097C19.7529 12.0914 19.7505 12.0872 19.7473 12.0842C19.7442 12.0813 19.7404 12.0799 19.736 12.0799C19.7293 12.0799 19.7242 12.0831 19.7204 12.0897C19.7167 12.0962 19.7148 12.1054 19.7148 12.1173C19.7148 12.1252 19.7157 12.132 19.7173 12.1375C19.719 12.1431 19.7214 12.1473 19.7246 12.1502C19.7277 12.1531 19.7315 12.1545 19.736 12.1545Z" fill="black"/>
<path d="M19.6569 12.1644C19.6501 12.1644 19.6444 12.1625 19.6396 12.1589C19.6349 12.1552 19.6313 12.1498 19.6288 12.1428C19.6263 12.1357 19.625 12.1272 19.625 12.1173C19.625 12.1074 19.6263 12.0989 19.6288 12.0919C19.6313 12.0849 19.6349 12.0795 19.6397 12.0758C19.6445 12.0721 19.6502 12.0702 19.6569 12.0702C19.6635 12.0702 19.6693 12.0721 19.674 12.0758C19.6788 12.0795 19.6824 12.0849 19.6849 12.0919C19.6875 12.0989 19.6887 12.1074 19.6887 12.1173C19.6887 12.1272 19.6875 12.1357 19.685 12.1428C19.6825 12.1498 19.6788 12.1552 19.6741 12.1589C19.6694 12.1625 19.6636 12.1644 19.6569 12.1644ZM19.6569 12.1545C19.6635 12.1545 19.6687 12.1513 19.6724 12.1448C19.6761 12.1384 19.678 12.1292 19.678 12.1173C19.678 12.1093 19.6771 12.1026 19.6754 12.097C19.6738 12.0914 19.6714 12.0872 19.6682 12.0842C19.6651 12.0813 19.6613 12.0799 19.6569 12.0799C19.6502 12.0799 19.6451 12.0831 19.6413 12.0897C19.6376 12.0962 19.6357 12.1054 19.6357 12.1173C19.6357 12.1252 19.6366 12.132 19.6382 12.1375C19.6399 12.1431 19.6423 12.1473 19.6455 12.1502C19.6486 12.1531 19.6524 12.1545 19.6569 12.1545Z" fill="black"/>
<path d="M19.5787 12.1644C19.572 12.1644 19.5663 12.1625 19.5615 12.1589C19.5568 12.1552 19.5531 12.1498 19.5506 12.1428C19.5481 12.1357 19.5469 12.1272 19.5469 12.1173C19.5469 12.1074 19.5481 12.0989 19.5506 12.0919C19.5532 12.0849 19.5568 12.0795 19.5616 12.0758C19.5663 12.0721 19.5721 12.0702 19.5787 12.0702C19.5854 12.0702 19.5911 12.0721 19.5959 12.0758C19.6007 12.0795 19.6043 12.0849 19.6068 12.0919C19.6093 12.0989 19.6106 12.1074 19.6106 12.1173C19.6106 12.1272 19.6094 12.1357 19.6068 12.1428C19.6043 12.1498 19.6007 12.1552 19.596 12.1589C19.5912 12.1625 19.5855 12.1644 19.5787 12.1644ZM19.5787 12.1545C19.5854 12.1545 19.5906 12.1513 19.5943 12.1448C19.598 12.1384 19.5999 12.1292 19.5999 12.1173C19.5999 12.1093 19.599 12.1026 19.5973 12.097C19.5956 12.0914 19.5932 12.0872 19.5901 12.0842C19.5869 12.0813 19.5832 12.0799 19.5787 12.0799C19.5721 12.0799 19.5669 12.0831 19.5632 12.0897C19.5595 12.0962 19.5576 12.1054 19.5576 12.1173C19.5576 12.1252 19.5585 12.132 19.5601 12.1375C19.5618 12.1431 19.5642 12.1473 19.5673 12.1502C19.5705 12.1531 19.5743 12.1545 19.5787 12.1545Z" fill="black"/>
</svg>
